<svg xmlns="http://www.w3.org/2000/svg" width="18" height="18" viewBox="0 0 18 18">
  <g fill="none" stroke="currentColor" stroke-width="0.85">
    <!-- Envelope outline only -->
    <polygon points="13.382 7.384 8.997 4.405 4.631 7.384 4.612 13.201 13.382 13.201" />
    <!-- Flap V line -->
    <polyline points="4.612 7.4 8.995 10.299 13.382 7.4" />
    <!-- Corner connectors (thinner) -->
    <path d="M1.22,1.43h0.75a0,0,0,0,1,0,0v3.6a.143.143,0,0,1-.143.143H.786A.286.286,0,0,1,.5,5.035V2A.572.572,0,0,1,1.072,1.43Z" fill="currentColor" stroke="none"/>
    <path d="M16.025,1.43h0.765A.572.572,0,0,1,17.5,2V5.035a.286.286,0,0,1-.286.286h-0.9a.143.143,0,0,1-.143-.143V1.43A0,0,0,0,1,16.025,1.43Z" fill="currentColor" stroke="none"/>
    <path d="M.786,12.679h0.9a.143.143,0,0,1,.143.143v3.75a0,0,0,0,1,0,0H1.072A.572.572,0,0,1,.5,16V12.965A.286.286,0,0,1,.786,12.679Z" fill="currentColor" stroke="none"/>
    <path d="M16.31,12.679h0.9a.286.286,0,0,1,.286.286V16a.572.572,0,0,1-.572.572h-0.757a0,0,0,0,1,0,0v-3.75A.143.143,0,0,1,16.31,12.679Z" fill="currentColor" stroke="none"/>
    <!-- Horizontal bars (thinner) -->
    <path d="M8.66-6.163H9.527a0,0,0,0,1,0,0v17a0,0,0,0,1,0,0H8.66a.567.567,0,0,1-.567-.567V-5.6A.567.567,0,0,1,8.66-6.163Z" transform="translate(11.337 -6.663) rotate(90)" fill="currentColor" stroke="none"/>
    <path d="M8.66,7.163H9.527a0,0,0,0,1,0,0v17a0,0,0,0,1,0,0H8.66a.567.567,0,0,1-.567-.567V7.73A.567.567,0,0,1,8.66,7.163Z" transform="translate(-6.663 24.663) rotate(-90)" fill="currentColor" stroke="none"/>
  </g>
</svg>
